<svg width="100" height="100" viewBox="0 0 100 100" fill="none" xmlns="http://www.w3.org/2000/svg">
<g id="ep:arrow-up-bold">
<path id="Vector" d="M33.0818 10.225C31.9101 11.397 31.2519 12.9865 31.2519 14.6437C31.2519 16.301 31.9101 17.8904 33.0818 19.0625L64.0193 50L33.0818 80.9375C31.9433 82.1163 31.3134 83.695 31.3276 85.3338C31.3418 86.9725 31.9991 88.5401 33.1579 89.6989C34.3167 90.8577 35.8843 91.515 37.523 91.5292C39.1618 91.5435 40.7405 90.9135 41.9193 89.775L77.2756 54.4187C78.4472 53.2467 79.1055 51.6573 79.1055 50C79.1055 48.3427 78.4472 46.7533 77.2756 45.5812L41.9193 10.225C40.7473 9.0533 39.1578 8.39508 37.5006 8.39508C35.8433 8.39508 34.2539 9.0533 33.0818 10.225Z" fill="black"/>
</g>
</svg>
