<svg width="80" height="80" viewBox="0 0 80 80" fill="none" xmlns="http://www.w3.org/2000/svg">
<g id="fluent:bowl-salad-20-regular">
<path id="Vector" opacity="0.5" d="M27.692 19.3314C28.923 17.0558 30.7606 15.1657 33.0008 13.8711C35.241 12.5766 37.796 11.9281 40.3824 11.9977C42.9688 12.0673 45.4853 12.8523 47.6526 14.2655C49.8199 15.6787 51.5531 17.6648 52.66 20.0034C49.7465 20.0696 46.9153 20.9828 44.5122 22.6314C42.1092 24.2801 40.2383 26.593 39.128 29.2874C38.1048 27.5815 36.8786 26.006 35.476 24.5954C33.2222 22.383 30.5846 20.5992 27.692 19.3314ZM67.968 35.9994C68.1959 32.5856 67.2505 29.1963 65.2885 26.3934C63.3265 23.5904 60.4656 21.5419 57.18 20.5874C56.1019 17.1719 54.0297 14.1554 51.2284 11.9235C48.4271 9.69169 45.0238 8.34591 41.4537 8.0582C37.8836 7.7705 34.3088 8.55394 31.1862 10.3084C28.0636 12.0628 25.5352 14.7086 23.924 17.9074C22.3327 17.4128 20.7123 17.0174 19.072 16.7234C16.2976 16.2241 13.483 15.9818 10.664 15.9994C10.4186 16.0039 10.1732 16.0119 9.928 16.0234H9.912C9.42301 16.0529 8.96173 16.2604 8.61534 16.6068C8.26895 16.9532 8.06143 17.4145 8.032 17.9034V17.9074C7.99891 18.8045 7.99757 19.7023 8.028 20.5994C8.08 22.2354 8.252 24.5074 8.716 27.0754C9.208 29.8034 10.04 32.9314 11.456 35.9954H10C9.46957 35.9954 8.96086 36.2062 8.58579 36.5812C8.21071 36.9563 8 37.465 8 37.9954V39.9954C8 48.4824 11.3714 56.6217 17.3726 62.6229C23.3737 68.624 31.5131 71.9955 40 71.9955C48.4869 71.9955 56.6263 68.624 62.6274 62.6229C68.6286 56.6217 72 48.4824 72 39.9954V37.9954C72 37.465 71.7893 36.9563 71.4142 36.5812C71.0391 36.2062 70.5304 35.9954 70 35.9954H67.968V35.9994ZM15.936 35.9994C14.2 32.8714 13.208 29.4434 12.656 26.3674C12.2782 24.2671 12.0616 22.1409 12.008 20.0074L12.464 20.0234C13.952 20.0754 16.024 20.2354 18.36 20.6594C23.08 21.5114 28.624 23.3994 32.648 27.4234C35.112 29.8874 36.78 32.9274 37.9 35.9994H30.832L23.416 28.5834C23.23 28.3978 23.0093 28.2505 22.7665 28.1501C22.5236 28.0497 22.2634 27.9981 22.0006 27.9983C21.7378 27.9985 21.4776 28.0505 21.2349 28.1512C20.9922 28.2519 20.7717 28.3995 20.586 28.5854C20.4003 28.7714 20.2531 28.9921 20.1527 29.235C20.0523 29.4778 20.0007 29.7381 20.0009 30.0009C20.0011 30.2637 20.053 30.5238 20.1538 30.7665C20.2545 31.0093 20.402 31.2298 20.588 31.4154L25.176 35.9994H15.936ZM42.128 35.9994C42.0927 35.8912 42.0567 35.7832 42.02 35.6754C41.933 34.1664 42.1579 32.6556 42.6807 31.2373C43.2035 29.819 44.013 28.5238 45.0587 27.4323C46.1044 26.3408 47.3638 25.4765 48.7584 24.8934C50.153 24.3103 51.6528 24.0209 53.1642 24.0432C54.6756 24.0655 56.1662 24.3991 57.5429 25.0231C58.9196 25.6472 60.153 26.5482 61.166 27.6701C62.179 28.792 62.9499 30.1107 63.4307 31.5437C63.9114 32.9768 64.0916 34.4936 63.96 35.9994H42.132H42.128ZM12 39.9994H68C68 42.7794 67.596 45.4634 66.84 47.9994H13.16C12.3885 45.4029 11.9977 42.7082 12 39.9994ZM40 67.9995C34.7004 68.0005 29.5093 66.4976 25.03 63.6653C20.5508 60.833 16.9673 56.7877 14.696 51.9994H65.304C63.0327 56.7877 59.4492 60.833 54.97 63.6653C50.4907 66.4976 45.2996 68.0005 40 67.9995Z" fill="#C21807"/>
</g>
</svg>
