<svg width="75" height="75" viewBox="0 0 75 75" fill="none" xmlns="http://www.w3.org/2000/svg">
<g id="iconamoon:delivery-free-light" opacity="0.5" clip-path="url(#clip0_111_846)">
<g id="Group">
<path id="Vector" d="M6.25 21.875V19.5312C5.6284 19.5312 5.03226 19.7782 4.59272 20.2177C4.15318 20.6573 3.90625 21.2534 3.90625 21.875H6.25ZM40.625 21.875H42.9688C42.9688 21.2534 42.7218 20.6573 42.2823 20.2177C41.8427 19.7782 41.2466 19.5312 40.625 19.5312V21.875ZM40.625 28.125V25.7812C40.0034 25.7812 39.4073 26.0282 38.9677 26.4677C38.5282 26.9073 38.2812 27.5034 38.2812 28.125H40.625ZM6.25 24.2188H40.625V19.5312H6.25V24.2188ZM38.2812 21.875V59.375H42.9688V21.875H38.2812ZM8.59375 53.125V21.875H3.90625V53.125H8.59375ZM40.625 30.4688H56.25V25.7812H40.625V30.4688ZM66.4062 40.625V53.125H71.0938V40.625H66.4062ZM42.9688 59.375V28.125H38.2812V59.375H42.9688ZM59.0125 62.1375C58.6498 62.5003 58.2191 62.7882 57.7451 62.9845C57.2711 63.1809 56.7631 63.282 56.25 63.282C55.7369 63.282 55.2289 63.1809 54.7549 62.9845C54.2809 62.7882 53.8502 62.5003 53.4875 62.1375L50.175 65.45C51.7866 67.0616 53.9724 67.9669 56.2516 67.9669C58.5307 67.9669 60.7165 67.0616 62.3281 65.45L59.0125 62.1375ZM53.4875 56.6125C53.8502 56.2497 54.2809 55.9618 54.7549 55.7655C55.2289 55.5691 55.7369 55.468 56.25 55.468C56.7631 55.468 57.2711 55.5691 57.7451 55.7655C58.2191 55.9618 58.6498 56.2497 59.0125 56.6125L62.325 53.3C60.7134 51.6884 58.5276 50.7831 56.2484 50.7831C53.9693 50.7831 51.7835 51.6884 50.1719 53.3L53.4875 56.6125ZM21.5125 62.1375C21.1498 62.5003 20.7191 62.7882 20.2451 62.9845C19.7711 63.1809 19.2631 63.282 18.75 63.282C18.2369 63.282 17.7289 63.1809 17.2549 62.9845C16.7809 62.7882 16.3502 62.5003 15.9875 62.1375L12.675 65.45C14.2866 67.0616 16.4724 67.9669 18.7516 67.9669C21.0307 67.9669 23.2165 67.0616 24.8281 65.45L21.5125 62.1375ZM15.9875 56.6125C16.3502 56.2497 16.7809 55.9618 17.2549 55.7655C17.7289 55.5691 18.2369 55.468 18.75 55.468C19.2631 55.468 19.7711 55.5691 20.2451 55.7655C20.7191 55.9618 21.1498 56.2497 21.5125 56.6125L24.825 53.3C23.2134 51.6884 21.0276 50.7831 18.7484 50.7831C16.4693 50.7831 14.2835 51.6884 12.6719 53.3L15.9875 56.6125ZM59.0125 56.6125C59.775 57.375 60.1562 58.3719 60.1562 59.375H64.8438C64.8438 57.1781 64.0031 54.975 62.3281 53.2969L59.0125 56.6125ZM60.1562 59.375C60.1562 60.3781 59.775 61.375 59.0125 62.1375L62.3281 65.45C63.1272 64.6531 63.7579 63.7062 64.1901 62.6637C64.6224 61.6212 64.8445 60.5036 64.8438 59.375H60.1562ZM50 57.0312H40.625V61.7188H50V57.0312ZM53.4875 62.1375C53.124 61.7753 52.8357 61.3447 52.6394 60.8706C52.4431 60.3965 52.3426 59.8882 52.3438 59.375H47.6562C47.6562 61.5719 48.4969 63.775 50.1719 65.4531L53.4875 62.1375ZM52.3438 59.375C52.3438 58.3719 52.725 57.375 53.4875 56.6125L50.1719 53.3C49.3728 54.0969 48.7421 55.0438 48.3099 56.0863C47.8776 57.1288 47.6555 58.2464 47.6562 59.375H52.3438ZM15.9875 62.1375C15.624 61.7753 15.3357 61.3447 15.1394 60.8706C14.9431 60.3965 14.8426 59.8882 14.8438 59.375H10.1562C10.1562 61.5719 10.9969 63.775 12.6719 65.4531L15.9875 62.1375ZM14.8438 59.375C14.8438 58.3719 15.225 57.375 15.9875 56.6125L12.675 53.3C11.8761 54.097 11.2423 55.044 10.8101 56.0864C10.3779 57.1289 10.1557 58.2465 10.1562 59.375H14.8438ZM40.625 57.0312H25V61.7188H40.625V57.0312ZM21.5125 56.6125C22.275 57.375 22.6562 58.3719 22.6562 59.375H27.3438C27.3438 57.1781 26.5031 54.975 24.8281 53.2969L21.5125 56.6125ZM22.6562 59.375C22.6562 60.3781 22.275 61.375 21.5125 62.1375L24.825 65.45C25.6239 64.653 26.2577 63.706 26.6899 62.6636C27.1221 61.6211 27.3443 60.5035 27.3438 59.375H22.6562ZM66.4062 53.125C66.4062 55.2812 64.6562 57.0312 62.5 57.0312V61.7188C64.7792 61.7188 66.9651 60.8133 68.5767 59.2017C70.1883 57.5901 71.0938 55.4042 71.0938 53.125H66.4062ZM56.25 30.4688C58.9436 30.4688 61.5269 31.5388 63.4316 33.4434C65.3362 35.3481 66.4062 37.9314 66.4062 40.625H71.0938C71.0938 36.6882 69.5299 32.9126 66.7461 30.1289C63.9624 27.3451 60.1868 25.7812 56.25 25.7812V30.4688ZM3.90625 53.125C3.90625 55.4042 4.81166 57.5901 6.4233 59.2017C8.03494 60.8133 10.2208 61.7188 12.5 61.7188V57.0312C10.3438 57.0312 8.59375 55.2812 8.59375 53.125H3.90625Z" fill="#C21807"/>
<path id="Vector_2" d="M23.4375 18.75C23.4375 16.2636 22.4498 13.879 20.6916 12.1209C18.9335 10.3627 16.5489 9.375 14.0625 9.375C13.2337 9.375 12.4388 9.70424 11.8528 10.2903C11.2667 10.8763 10.9375 11.6712 10.9375 12.5C10.9375 14.9864 11.9252 17.371 13.6834 19.1291C15.4415 20.8873 17.8261 21.875 20.3125 21.875H23.4375M23.4375 18.75V21.875M23.4375 18.75C23.4375 16.2636 24.4252 13.879 26.1834 12.1209C27.9415 10.3627 30.3261 9.375 32.8125 9.375C33.6413 9.375 34.4362 9.70424 35.0222 10.2903C35.6083 10.8763 35.9375 11.6712 35.9375 12.5C35.9375 14.9864 34.9498 17.371 33.1916 19.1291C31.4335 20.8873 29.0489 21.875 26.5625 21.875H23.4375" stroke="#C21807" stroke-width="4.5" stroke-linejoin="round"/>
</g>
</g>
<defs>
<clipPath id="clip0_111_846">
<rect width="75" height="75" fill="white"/>
</clipPath>
</defs>
</svg>
