<svg width="70" height="70" viewBox="0 0 70 70" fill="none" xmlns="http://www.w3.org/2000/svg">
<g id="solar:wallet-money-linear" opacity="0.5" clip-path="url(#clip0_111_833)">
<g id="Group">
<path id="Vector" d="M17.498 29.1667H29.1647" stroke="#C21807" stroke-width="4.5" stroke-linecap="round" stroke-linejoin="round"/>
<path id="Vector_2" d="M60.761 32.0834H53.1718C47.9655 32.0834 43.748 36.0005 43.748 40.8334C43.748 45.6663 47.9685 49.5834 53.1689 49.5834H60.761C61.006 49.5834 61.1255 49.5834 61.2276 49.5775C62.8026 49.4813 64.0568 48.3175 64.1589 46.8563C64.1647 46.763 64.1647 46.6492 64.1647 46.4246V35.2421C64.1647 35.0175 64.1647 34.9038 64.1589 34.8105C64.0539 33.3492 62.8026 32.1855 61.2276 32.0892C61.1255 32.0834 61.006 32.0834 60.761 32.0834Z" stroke="#C21807" stroke-width="4.5"/>
<path id="Vector_3" d="M61.1466 32.0835C60.9191 26.6235 60.19 23.2751 57.8304 20.9185C54.4149 17.5001 48.9141 17.5001 37.9154 17.5001H29.1654C18.1666 17.5001 12.6658 17.5001 9.25036 20.9185C5.83203 24.3339 5.83203 29.8347 5.83203 40.8335C5.83203 51.8322 5.83203 57.333 9.25036 60.7485C12.6658 64.1668 18.1666 64.1668 29.1654 64.1668H37.9154C48.9141 64.1668 54.4149 64.1668 57.8304 60.7485C60.19 58.3918 60.922 55.0435 61.1466 49.5835" stroke="#C21807" stroke-width="4.5"/>
<path id="Vector_4" d="M17.498 17.5001L28.3918 10.2755C29.9238 9.27897 31.7121 8.74854 33.5397 8.74854C35.3673 8.74854 37.1556 9.27897 38.6876 10.2755L49.5814 17.5001" stroke="#C21807" stroke-width="4.5" stroke-linecap="round"/>
<path id="Vector_5" d="M52.4727 40.8334H52.5018" stroke="#C21807" stroke-width="2" stroke-linecap="round" stroke-linejoin="round"/>
</g>
</g>
<defs>
<clipPath id="clip0_111_833">
<rect width="70" height="70" fill="white"/>
</clipPath>
</defs>
</svg>
