<?xml version="1.0" standalone="no"?>
<!DOCTYPE svg PUBLIC "-//W3C//DTD SVG 20010904//EN"
 "http://www.w3.org/TR/2001/REC-SVG-20010904/DTD/svg10.dtd">
<svg version="1.0" xmlns="http://www.w3.org/2000/svg"
 width="700.000000pt" height="700.000000pt" viewBox="0 0 700.000000 700.000000"
 preserveAspectRatio="xMidYMid meet">
<metadata>
Created by potrace 1.14, written by Peter Selinger 2001-2017
</metadata>
<g transform="translate(0.000000,700.000000) scale(0.100000,-0.100000)"
fill="#000000" stroke="none">
<path d="M4177 6708 c-2 -13 -16 -62 -31 -110 -14 -49 -37 -125 -50 -170 -14
-46 -45 -152 -71 -237 -25 -84 -45 -154 -43 -155 11 -8 91 -26 95 -23 2 3 23
68 45 144 22 76 43 141 47 145 6 7 239 -53 261 -67 10 -6 24 21 35 68 6 21 -1
25 -119 56 -69 19 -130 37 -136 41 -9 6 -5 32 15 101 15 52 31 98 35 102 4 4
72 -10 151 -33 79 -22 147 -40 150 -40 7 0 30 82 24 88 -3 4 -386 112 -396
112 -4 0 -9 -10 -12 -22z"/>
<path d="M2735 6703 c-163 -35 -245 -56 -245 -63 0 -7 140 -584 161 -663 8
-31 13 -36 32 -32 134 29 273 68 295 82 89 56 134 136 138 244 7 183 -74 348
-201 409 -40 19 -139 32 -180 23z m133 -114 c88 -39 145 -149 146 -284 1 -100
-19 -146 -82 -186 -39 -25 -187 -68 -197 -57 -2 2 -6 17 -9 33 -3 17 -30 130
-61 253 -30 123 -55 224 -55 226 0 4 42 14 95 23 17 3 32 7 34 9 12 11 88 2
129 -17z"/>
<path d="M1850 6377 c-59 -16 -111 -49 -149 -93 -46 -52 -62 -89 -68 -162 -7
-89 15 -163 77 -255 85 -127 175 -181 300 -182 63 0 84 4 130 29 73 38 114 78
141 139 54 127 15 283 -104 413 -87 96 -221 141 -327 111z m162 -111 c93 -40
189 -189 190 -296 1 -128 -121 -215 -250 -179 -91 25 -199 162 -217 275 -19
121 81 230 200 219 22 -2 57 -11 77 -19z"/>
<path d="M5171 6249 c-163 -56 -298 -255 -284 -419 16 -188 218 -310 405 -244
134 47 262 218 274 366 18 206 -194 365 -395 297z m195 -108 c135 -76 129
-248 -13 -390 -88 -87 -172 -107 -262 -61 -96 49 -127 156 -77 266 80 175 230
254 352 185z"/>
<path d="M1086 5783 c-28 -10 -71 -37 -102 -65 -114 -105 -139 -244 -68 -373
34 -59 132 -149 202 -182 49 -24 69 -28 147 -28 104 0 156 20 219 83 101 100
126 228 69 350 -25 55 -139 163 -207 196 -76 36 -186 45 -260 19z m224 -119
c65 -35 146 -123 160 -172 25 -92 -3 -174 -77 -226 -91 -64 -215 -41 -322 59
-109 102 -121 223 -32 314 47 48 86 62 157 57 43 -2 77 -12 114 -32z"/>
<path d="M3458 5666 c-1 -2 -53 -6 -114 -10 -61 -3 -117 -8 -125 -10 -8 -3
-38 -7 -67 -10 -74 -9 -212 -40 -313 -72 -532 -168 -986 -527 -1293 -1024 -55
-87 -176 -320 -176 -337 0 -4 -7 -21 -15 -36 -32 -62 -119 -340 -140 -452 -5
-22 -9 -44 -11 -50 -2 -11 -20 -122 -28 -175 -28 -202 -27 -499 5 -725 20
-151 85 -423 118 -500 5 -11 26 -65 47 -120 118 -307 314 -605 558 -850 201
-201 362 -317 601 -435 226 -112 425 -176 630 -205 22 -3 46 -8 53 -10 45 -16
302 -22 457 -12 92 6 114 9 185 22 14 3 41 7 60 10 99 17 304 76 402 118 528
222 927 591 1211 1118 114 212 233 558 262 764 3 22 10 65 16 95 32 187 31
579 -2 780 -38 225 -87 407 -155 583 -208 530 -582 973 -1046 1240 -93 54
-117 66 -255 128 -122 55 -375 128 -501 144 -20 3 -53 7 -72 10 -19 3 -87 8
-150 11 -63 3 -120 7 -127 9 -6 2 -13 2 -15 1z m292 -110 c19 -3 69 -12 110
-20 41 -9 87 -17 102 -20 15 -3 45 -10 65 -16 416 -131 689 -294 973 -581 139
-141 129 -130 214 -243 112 -147 238 -369 309 -541 61 -148 138 -414 153 -530
3 -27 7 -52 9 -55 2 -3 6 -32 10 -66 l6 -61 -78 -79 c-135 -137 -256 -221
-508 -354 -289 -152 -474 -232 -855 -370 -58 -21 -129 -50 -159 -65 -29 -14
-55 -24 -58 -21 -13 13 -3 603 12 698 7 45 15 114 20 168 3 30 7 73 9 95 2 22
7 90 11 150 3 61 8 135 10 165 20 296 26 1313 8 1331 -19 19 -86 14 -134 -10
-88 -44 -191 -157 -250 -272 -29 -58 -74 -182 -82 -229 -3 -14 -12 -59 -20
-100 -9 -41 -18 -100 -22 -130 -3 -30 -8 -80 -12 -110 -12 -111 -6 -409 12
-530 17 -117 33 -202 72 -370 52 -228 69 -308 80 -376 14 -84 6 -626 -9 -639
-10 -9 -222 -125 -231 -127 -13 -3 -274 127 -294 146 -16 15 -22 104 -28 421
-6 341 7 407 112 574 100 159 113 241 107 666 -2 171 -6 337 -8 370 -3 33 -8
105 -11 160 -3 55 -8 116 -10 135 -2 19 -7 71 -10 115 -13 167 -25 259 -36
269 -5 6 -9 -9 -10 -40 -1 -27 -2 -69 -4 -94 -1 -25 -5 -133 -9 -240 -20 -625
-28 -720 -55 -720 -21 0 -29 38 -31 140 -6 311 -9 387 -15 510 -11 223 -14
278 -21 343 -3 34 -7 68 -7 75 0 6 -4 12 -9 12 -4 0 -9 -21 -9 -47 -1 -27 -2
-61 -4 -78 -8 -92 -21 -393 -30 -715 -3 -96 -8 -188 -11 -205 -6 -37 -20 -53
-34 -39 -12 12 -18 73 -25 274 -13 398 -15 461 -20 570 -3 63 -8 140 -10 170
-2 30 -4 64 -5 74 0 22 -13 14 -17 -12 -3 -20 -14 -171 -18 -252 -2 -30 -6
-179 -10 -330 -10 -419 -12 -471 -24 -483 -14 -14 -39 9 -45 40 -3 11 -7 92
-10 179 -11 285 -15 406 -22 584 -3 96 -7 189 -9 205 -2 17 -3 43 -4 59 -3 74
-20 -15 -36 -184 -4 -36 -8 -81 -10 -100 -4 -33 -10 -114 -20 -260 -18 -245
-24 -668 -12 -810 14 -175 32 -229 115 -359 40 -61 74 -146 88 -216 4 -22 9
-47 11 -55 4 -18 3 -121 -2 -175 -3 -36 -8 -128 -20 -340 -2 -38 -4 -71 -4
-72 -1 -3 -67 25 -171 70 -307 134 -816 380 -990 478 -30 17 -100 56 -155 87
-55 31 -104 59 -109 61 -6 2 -15 8 -21 13 -5 4 -37 26 -70 48 -33 22 -93 68
-133 101 -71 60 -73 63 -68 98 3 20 8 56 11 81 27 205 124 511 235 735 189
383 442 678 788 919 256 178 625 318 927 352 33 3 62 8 63 9 6 6 424 -3 462
-9z m-2351 -2340 c96 -70 208 -214 333 -426 47 -80 108 -174 136 -210 58 -77
112 -170 112 -193 0 -24 -18 -22 -154 22 -66 21 -188 51 -270 66 -167 32 -185
42 -210 115 -8 25 -24 69 -35 98 -60 162 -83 400 -47 487 36 84 64 93 135 41z
m4303 -133 c9 -12 14 -34 13 -62 -4 -60 -14 -178 -21 -221 -4 -33 -27 -169
-29 -180 -1 -3 -5 -21 -9 -40 -4 -19 -12 -52 -17 -72 l-9 -36 -68 -7 c-37 -4
-78 -8 -92 -10 -14 -2 -47 -7 -75 -10 -90 -11 -119 -15 -185 -26 -103 -16
-114 -17 -137 -8 -13 5 -23 14 -23 21 0 23 35 80 121 199 46 63 104 146 128
184 47 76 101 126 243 223 96 65 133 75 160 45z m-388 -75 c-14 -47 -97 -192
-177 -312 -98 -147 -153 -196 -171 -150 -14 37 -36 149 -36 185 0 45 13 75 44
101 33 29 239 156 287 178 56 25 62 25 53 -2z m-3512 -37 c96 -49 205 -114
241 -143 41 -35 46 -69 25 -178 -27 -134 -40 -145 -102 -82 -70 70 -286 395
-286 430 0 22 45 12 122 -27z m547 -276 c177 -68 251 -103 273 -127 20 -24 15
-43 -45 -163 -25 -49 -57 -129 -71 -177 -25 -88 -48 -142 -65 -152 -25 -16
-275 234 -318 318 -41 80 10 356 66 356 11 0 83 -25 160 -55z m2477 37 c34
-22 67 -133 68 -227 1 -120 -17 -150 -198 -327 -82 -81 -151 -146 -152 -145
-2 1 -6 18 -9 37 -32 186 -62 274 -136 403 -28 49 -50 89 -48 91 16 11 286
126 359 151 69 25 98 29 116 17z m-1966 -239 c131 -44 560 -262 560 -285 0 -6
-82 -92 -183 -192 -101 -99 -207 -209 -236 -243 -30 -35 -59 -63 -64 -63 -15
0 -257 161 -302 202 -58 50 -73 94 -69 195 6 149 65 322 132 391 36 36 35 37
162 -5z m1456 -11 c49 -49 82 -122 106 -240 26 -127 28 -240 5 -275 -16 -25
-155 -129 -373 -279 l-111 -77 -32 82 c-72 178 -159 319 -270 437 -34 36 -61
68 -61 72 0 15 68 53 248 140 236 115 409 187 432 181 10 -3 35 -21 56 -41z
m-2756 -76 c41 -8 89 -18 105 -21 17 -3 64 -14 105 -25 41 -12 82 -22 90 -24
65 -16 143 -43 185 -64 139 -69 395 -266 395 -303 0 -19 -47 -31 -123 -32 -77
-1 -221 9 -269 18 -12 3 -58 9 -102 16 -107 14 -332 72 -376 96 -25 13 -44 37
-69 86 -39 77 -102 258 -94 270 6 10 43 5 153 -17z m4040 9 c10 -13 6 -35 -25
-123 -68 -195 -71 -197 -234 -238 -53 -14 -127 -33 -166 -44 -38 -10 -83 -21
-99 -24 -16 -3 -52 -10 -80 -16 -74 -15 -108 -19 -237 -26 -119 -7 -189 -1
-189 17 0 21 184 193 265 248 121 81 346 154 578 186 23 4 67 12 97 20 72 18
75 18 90 0z m-2047 -302 c117 -59 269 -299 291 -461 7 -54 -42 -135 -149 -247
-53 -55 -126 -135 -162 -177 -65 -77 -89 -96 -105 -80 -4 4 -19 35 -32 69 -34
88 -83 157 -194 275 -118 125 -152 169 -152 195 0 61 268 357 380 421 57 33
68 33 123 5z m1897 -110 c0 -36 -155 -288 -201 -327 -74 -62 -220 -117 -371
-140 -86 -12 -370 -13 -573 -2 -109 7 -127 8 -235 22 -30 4 -61 7 -67 7 -20 1
-17 3 40 41 28 19 99 73 156 121 57 47 137 102 178 122 l73 36 193 3 c258 4
337 12 487 50 52 13 140 39 194 58 100 34 126 36 126 9z m-3780 -4 c41 -11
134 -35 205 -54 115 -29 156 -37 255 -51 14 -2 75 -6 135 -9 319 -15 321 -16
466 -110 100 -65 179 -135 179 -158 0 -25 -41 -51 -100 -64 -143 -31 -716 -36
-875 -8 -103 19 -139 44 -204 140 -65 97 -165 300 -157 320 7 19 5 19 96 -6z
m1403 -471 c87 -58 221 -227 268 -334 32 -75 36 -182 10 -278 -23 -83 -50
-144 -77 -170 -13 -14 -28 -16 -77 -11 -34 4 -64 8 -67 10 -3 2 -23 6 -45 9
-22 4 -82 18 -133 31 -52 14 -96 25 -99 25 -5 0 -1 74 12 215 3 28 7 86 10
130 3 44 7 91 9 105 3 14 7 43 11 65 14 96 51 184 87 209 30 22 54 20 91 -6z
m-213 -60 c0 -36 -56 -250 -73 -277 -18 -31 -76 -66 -125 -76 -9 -2 -49 -10
-87 -19 -104 -22 -124 -26 -186 -32 -53 -6 -58 -5 -110 32 -139 98 -407 339
-394 353 10 9 36 11 235 17 107 4 196 7 197 8 8 6 543 0 543 -6z m2080 -2 c69
-4 129 -11 133 -15 12 -12 -213 -223 -326 -307 -124 -93 -142 -97 -282 -60
-91 25 -171 31 -405 31 -233 0 -342 -7 -435 -29 -69 -17 -91 -7 -80 35 15 60
187 254 277 313 35 23 55 26 188 33 63 3 116 6 117 7 6 5 709 -2 813 -8z
m-510 -431 c47 -10 91 -18 98 -18 27 -1 8 -15 -75 -59 -150 -79 -350 -155
-483 -183 -8 -2 -46 -10 -85 -19 -108 -23 -217 -34 -389 -40 -113 -4 -126 0
-126 36 0 41 48 158 78 190 53 57 167 91 352 104 47 4 87 8 89 10 2 2 105 1
230 -1 161 -2 251 -8 311 -20z m-1705 9 c25 -10 46 -62 48 -120 2 -67 -10 -82
-55 -64 -73 28 -278 132 -278 140 0 10 50 27 105 36 22 3 42 8 44 10 7 6 118
5 136 -2z"/>
<path d="M5899 5600 c-56 -10 -139 -55 -197 -105 -147 -130 -164 -310 -40
-450 126 -144 345 -140 507 11 143 132 157 307 35 443 -77 86 -190 123 -305
101z m185 -124 c92 -54 126 -168 78 -262 -27 -52 -99 -116 -168 -149 -215
-102 -408 129 -259 310 65 80 177 136 261 130 24 -1 63 -15 88 -29z"/>
<path d="M530 4883 c-129 -44 -209 -156 -218 -305 -4 -69 -2 -84 22 -132 95
-193 384 -268 550 -141 104 79 157 251 114 369 -28 79 -91 133 -198 171 l-38
13 -48 -126 c-27 -69 -50 -129 -52 -132 -1 -4 15 -14 37 -22 l40 -16 27 71
c37 97 40 100 73 81 80 -47 101 -165 48 -257 -51 -87 -141 -124 -247 -102 -79
16 -145 52 -185 98 -31 36 -39 56 -49 122 -5 31 20 103 49 140 30 40 51 53
113 69 40 10 46 15 63 59 10 26 15 47 11 48 -53 6 -74 5 -112 -8z"/>
<path d="M6285 4724 c-170 -57 -311 -108 -313 -113 -6 -18 91 -266 124 -318
82 -128 223 -171 389 -116 151 49 229 150 228 293 -1 63 -8 97 -50 214 -27 77
-54 141 -59 142 -5 1 -148 -45 -319 -102z m308 -112 c58 -159 23 -258 -112
-320 -105 -48 -208 -42 -272 15 -22 20 -47 50 -56 67 -28 53 -63 160 -55 167
13 13 457 156 463 150 3 -3 18 -39 32 -79z"/>
<path d="M590 3220 c-12 -7 -15 -31 -14 -117 1 -101 11 -275 19 -326 2 -12 7
-49 11 -82 14 -119 22 -162 50 -297 128 -609 419 -1155 838 -1573 286 -285
583 -479 964 -629 89 -35 327 -108 388 -120 16 -3 67 -12 114 -21 47 -9 101
-18 120 -20 19 -3 49 -7 65 -9 93 -15 194 -20 400 -20 255 1 408 19 630 73
121 30 322 96 405 133 360 161 627 345 905 623 334 333 582 721 749 1168 69
184 141 468 161 632 4 28 8 61 10 74 23 138 27 480 6 505 -18 21 -57 21 -67
-1 -4 -10 -9 -81 -9 -158 -2 -130 -11 -294 -19 -340 -2 -11 -6 -41 -10 -66
-17 -120 -33 -198 -62 -309 -27 -102 -88 -296 -109 -345 -7 -16 -32 -74 -55
-129 -34 -81 -96 -207 -153 -310 -39 -69 -204 -314 -261 -386 -92 -117 -234
-270 -339 -365 -49 -44 -94 -85 -100 -91 -34 -30 -196 -149 -273 -200 -115
-75 -343 -193 -464 -240 -159 -61 -358 -119 -480 -139 -35 -6 -89 -15 -123
-21 -144 -25 -582 -25 -737 1 -14 2 -43 6 -65 10 -297 43 -622 148 -875 282
-751 398 -1265 1102 -1464 2003 -26 117 -41 205 -51 295 -3 28 -8 60 -10 72
-6 34 -15 193 -19 316 -3 65 -9 113 -16 122 -14 17 -38 19 -60 5z"/>
</g>
</svg>
